<svg viewBox="0 0 400 400" xmlns="http://www.w3.org/2000/svg" role="img" aria-label="Garrison Law">
<title>Garrison Law</title>
<rect width="400" height="400" fill="#0d0e27"/>
<g stroke="#fbfaf7" stroke-opacity="0.22" fill="none" stroke-width="2">
  <path d="M-20 300 C 60 300, 100 200, 180 200 S 300 80, 440 80"/>
  <path d="M-20 280 C 60 280, 100 180, 180 180 S 300 60, 440 60"/>
  <path d="M-20 320 C 60 320, 100 220, 180 220 S 300 100, 440 100"/>
  <path d="M-20 260 C 60 260, 100 160, 180 160 S 300 40, 440 40"/>
  <path d="M-20 340 C 60 340, 100 240, 180 240 S 300 120, 440 120"/>
</g>
<text x="360" y="330" text-anchor="end" font-family="Georgia, 'Times New Roman', serif" font-size="58" fill="#fbfaf7">garrison</text>
<line x1="205" y1="345" x2="360" y2="345" stroke="#cfab72" stroke-width="2"/>
</svg>
